# xmcd
#
# Track frame offsets:
#	183
#	15408
#	26645
#	44440
#	59015
#	70933
#	81408
#	96268
#	109388
#	124158
#	137683
#	153498
#	165503
#	180008
#
# Disc length: 2562 seconds
#
# Revision: 1
# Processed by: cddbd v1.5.2PL0 Copyright (c) Steve Scherf et al.
# Submitted via: audiograbber 1.83.01
#
DISCID=b90a000e
DTITLE=Tom Astor - Ausgewählte Goldstücke
DYEAR=1900
DGENRE=
TTITLE0=Sonntagmorgen
TTITLE1=Ist lange her
TTITLE2=Mein Freund Charly
TTITLE3=Mein Daddy
TTITLE4=Tränen auf Leder
TTITLE5=Einmal im Jahr
TTITLE6=Sie ist jung, und ich ein Mann, der viel erlebt
TTITLE7=Amanda
TTITLE8=Disco Western Rodeo
TTITLE9=Ich hatte doch heut' Abend noch was vor
TTITLE10=Abschied
TTITLE11=Wer verliert, gewinnt irgendwann
TTITLE12=Ich hör' so gern Cajun-Music
TTITLE13=Kopf hoch, Mann
EXTD=
EXTT0=
EXTT1=
EXTT2=
EXTT3=
EXTT4=
EXTT5=
EXTT6=
EXTT7=
EXTT8=
EXTT9=
EXTT10=
EXTT11=
EXTT12=
EXTT13=
PLAYORDER=
